<svg width="103" height="37" viewBox="0 0 103 37" fill="none" xmlns="http://www.w3.org/2000/svg">
<g clip-path="url(#clip0_2_2069)">
<path d="M20.2593 12.1156C19.3118 11.0363 18.2627 10.2338 17.1516 9.74675C16.0405 9.25969 14.7828 9.01062 13.4179 9.01062C9.53182 9.01062 7.41113 11.2688 6.58203 12.4256V9.5641H0V36.4465H6.57639V21.5137C6.57639 19.2942 7.12348 17.6504 8.20638 16.6265C9.28929 15.6025 10.6824 15.0823 12.3462 15.0823C13.1077 15.0823 13.7845 15.1874 14.3598 15.3978C14.9294 15.6081 15.4539 15.9623 15.9164 16.4549L16.0574 16.6043L20.3721 12.2485L20.2537 12.1156H20.2593Z" fill="#B5E600"/>
<path d="M45.2733 15.9568C44.1002 13.765 42.5266 12.0437 40.592 10.8316C38.6574 9.61944 36.2547 9.00508 33.4572 9.00508C30.6597 9.00508 28.2514 9.63605 26.0743 10.8814C23.8972 12.1267 22.1544 13.8093 20.8854 15.8903C19.6164 17.9714 18.9734 20.3458 18.9734 22.9417C18.9734 25.5375 19.6051 27.9285 20.8572 30.0483C22.1093 32.1681 23.8634 33.8728 26.0743 35.1126C28.2852 36.358 30.8628 36.9889 33.7392 36.9889C36.0009 36.9889 38.1216 36.596 40.028 35.8156C41.94 35.0351 43.5869 33.8673 44.9123 32.3397L45.0251 32.2069L40.8176 28.017L40.6822 28.172C39.8813 29.0687 38.883 29.755 37.7155 30.2199C36.548 30.6848 35.1888 30.9228 33.6828 30.9228C32.5999 30.9228 31.596 30.7844 30.6879 30.5077L45.341 16.0785L45.2733 15.9568ZM26.4071 27.1093C25.7585 25.9194 25.4313 24.5191 25.4313 22.9472C25.4313 21.3753 25.7641 20.0138 26.4184 18.8127C27.0726 17.6172 28.0202 16.6652 29.2384 15.99C30.4623 15.3092 31.9118 14.966 33.5588 14.966C35.2057 14.966 36.6383 15.2871 37.614 15.9291C37.6479 15.9512 37.6817 15.9789 37.7155 16.001L26.4014 27.1038L26.4071 27.1093Z" fill="#B5E600"/>
<path d="M66.3787 28.0724C65.6172 28.9635 64.681 29.6443 63.6094 30.0926C62.5321 30.5409 61.3364 30.7678 60.0561 30.7678C58.5614 30.7678 57.2191 30.4358 56.0741 29.7716C54.9292 29.1129 54.0268 28.1886 53.3894 27.0319C52.7521 25.8696 52.425 24.5135 52.425 23.0081C52.425 21.5026 52.7465 20.1023 53.3894 18.9566C54.0268 17.8165 54.9292 16.9032 56.0741 16.239C57.2191 15.5804 58.5614 15.2428 60.0561 15.2428C61.3364 15.2428 62.5321 15.4697 63.6094 15.918C64.681 16.3663 65.6116 17.0416 66.3787 17.9382L66.514 18.0987L70.84 13.7927L70.7272 13.6598C69.4356 12.171 67.8507 11.0142 66.0177 10.2172C64.1847 9.42019 62.1768 9.01062 60.0617 9.01062C57.377 9.01062 54.9123 9.63052 52.7352 10.8592C50.5581 12.088 48.8209 13.7705 47.5745 15.8682C46.328 17.9659 45.6907 20.368 45.6907 23.0025C45.6907 25.6371 46.3224 27.9894 47.5745 30.1092C48.8209 32.229 50.5581 33.9227 52.7352 35.1458C54.9123 36.3746 57.377 36.9945 60.0617 36.9945C62.1768 36.9945 64.1847 36.5904 66.0177 35.7879C67.8564 34.9909 69.4412 33.8286 70.7272 32.3397L70.84 32.2069L66.514 27.9008L66.3787 28.0613V28.0724Z" fill="#B5E600"/>
<path d="M87.2076 9.18773C79.1874 8.08078 71.7763 13.3831 70.6821 21.0045C69.5879 28.6259 75.2167 35.727 83.237 36.834C91.2516 37.9409 98.6684 32.6441 99.7626 25.0227C100.857 17.4013 95.2223 10.2947 87.2076 9.18773ZM93.942 22.5155C93.3779 26.4452 89.6724 29.1794 85.6679 28.6259C81.6634 28.0724 78.8772 24.4416 79.4412 20.5119C80.0052 16.5822 83.7051 13.8425 87.7096 14.396C91.7141 14.9494 94.506 18.5858 93.942 22.5155Z" fill="#B5E600"/>
<path d="M101.037 0.752736C98.9955 -0.603285 96.2149 -0.0830155 94.8331 1.92611C93.4513 3.9297 93.9814 6.65835 96.0288 8.01437C98.0705 9.37039 100.851 8.85012 102.233 6.84099C103.615 4.8374 103.085 2.10876 101.037 0.752736Z" fill="#B5E600"/>
</g>
<defs>
<clipPath id="clip0_2_2069">
<rect width="103" height="37" fill="white"/>
</clipPath>
</defs>
</svg>
